# Blender v2.80 (sub 75) OBJ File: 'Bottle 2.blend'
# www.blender.org
mtllib bottle.mtl
o Cylinder.001
v 0.038850 0.031619 0.032599
v 0.038997 0.159333 0.032722
v 0.004437 0.159333 0.050713
v 0.004420 0.031619 0.050522
v -0.032722 0.159333 0.038997
v -0.032599 0.031619 0.038850
v 0.050713 0.159333 -0.004437
v 0.050522 0.031619 -0.004420
vt 0.364715 0.149056
vt 0.364715 0.296186
vt 0.273940 0.296081
vt 0.274281 0.148951
vt 0.183165 0.295764
vt 0.183848 0.148636
vt 0.092392 0.295238
vt 0.093416 0.148111
vn 0.9537 -0.0014 0.3007
vn 0.4617 -0.0014 0.8870
vn -0.3007 -0.0014 0.9537
usemtl Material.002
s off
f 8/1/1 7/2/1 2/3/1 1/4/1
f 1/4/2 2/3/2 3/5/2 4/6/2
f 4/6/3 3/5/3 5/7/3 6/8/3
o Cylinder
v 0.038703 0.002650 0.032476
v 0.004403 0.002650 0.050331
v -0.032476 0.002650 0.038703
v -0.050331 0.002650 0.004403
v -0.038703 0.002650 -0.032476
v -0.004403 0.002650 -0.050331
v 0.032476 0.002650 -0.038703
v 0.050331 0.002650 -0.004403
v 0.018287 0.214482 0.015344
v 0.002081 0.214482 0.023781
v -0.015344 0.214482 0.018287
v -0.023781 0.214482 0.002081
v -0.018287 0.214482 -0.015344
v -0.002081 0.214482 -0.023781
v 0.015344 0.214482 -0.018287
v 0.023781 0.214482 -0.002081
v 0.013204 0.293829 0.011079
v 0.001502 0.293829 0.017171
v -0.011079 0.293829 0.013204
v -0.017171 0.293829 0.001502
v -0.013204 0.293829 -0.011079
v -0.001502 0.293829 -0.017171
v 0.011079 0.293829 -0.013204
v 0.017171 0.293829 -0.001502
v 0.018683 0.297234 0.015676
v 0.002126 0.297234 0.024295
v -0.015676 0.297234 0.018682
v -0.024295 0.297234 0.002126
v -0.018682 0.297234 -0.015677
v -0.002126 0.297234 -0.024295
v 0.015677 0.297234 -0.018683
v 0.024296 0.297234 -0.002126
v 0.018683 0.309718 0.015676
v 0.002126 0.309718 0.024295
v -0.015676 0.309718 0.018682
v -0.024295 0.309718 0.002126
v -0.018682 0.309718 -0.015677
v -0.002126 0.309718 -0.024295
v 0.015677 0.309718 -0.018683
v 0.024296 0.309718 -0.002126
v 0.011996 0.313690 0.010066
v 0.001365 0.313690 0.015600
v -0.010066 0.313690 0.011996
v -0.015600 0.313690 0.001365
v -0.011996 0.313690 -0.010066
v -0.001365 0.313690 -0.015600
v 0.010066 0.313690 -0.011996
v 0.015600 0.313690 -0.001365
v 0.039143 0.192100 0.032845
v 0.004453 0.192100 0.050904
v -0.032845 0.192100 0.039143
v -0.050904 0.192100 0.004453
v -0.039143 0.192100 -0.032845
v -0.004453 0.192100 -0.050904
v 0.032845 0.192100 -0.039143
v 0.050904 0.192100 -0.004453
v 0.017176 0.214678 -0.001503
v 0.011083 0.214678 -0.013208
v -0.001503 0.214678 -0.017176
v -0.013208 0.214678 -0.011083
v -0.017176 0.214678 0.001503
v -0.011083 0.214678 0.013208
v 0.001503 0.214678 0.017176
v 0.013208 0.214678 0.011083
v 0.032754 0.191558 -0.002866
v 0.021134 0.191558 -0.025187
v -0.002866 0.191558 -0.032754
v -0.025187 0.191558 -0.021134
v -0.032754 0.191558 0.002866
v -0.021134 0.191558 0.025187
v 0.002866 0.191558 0.032754
v 0.025187 0.191558 0.021134
v 0.032948 0.019082 -0.002883
v 0.021259 0.019082 -0.025336
v -0.002883 0.019082 -0.032948
v -0.025336 0.019082 -0.021259
v -0.032948 0.019082 0.002883
v -0.021259 0.019082 0.025336
v 0.002883 0.019082 0.032948
v 0.025336 0.019082 0.021259
v 0.038850 0.031619 0.032599
v 0.038997 0.159333 0.032722
v 0.004437 0.159333 0.050713
v 0.004420 0.031619 0.050522
v -0.032722 0.159333 0.038997
v -0.032599 0.031619 0.038850
v 0.050713 0.159333 -0.004437
v 0.050522 0.031619 -0.004420
vt 0.275343 0.596950
vt 0.235663 0.581542
vt 0.241429 0.499629
vt 0.326367 0.532611
vt 0.194215 0.591239
vt 0.152708 0.520386
vt 0.165489 0.684070
vt 0.194215 0.715482
vt 0.152709 0.786335
vt 0.091218 0.719096
vt 0.235663 0.725179
vt 0.241429 0.807092
vt 0.275343 0.709771
vt 0.326367 0.774110
vt 0.299386 0.674644
vt 0.377831 0.698919
vt 0.096585 0.577062
vt 0.096178 0.549477
vt 0.326330 0.540806
vt 0.327701 0.571280
vt 0.299386 0.632077
vt 0.377831 0.607802
vt 0.096518 0.687625
vt 0.327659 0.693089
vt 0.326309 0.723465
vt 0.096115 0.715306
vt 0.184710 0.539934
vt 0.274802 0.539934
vt 0.338507 0.603639
vt 0.338507 0.693731
vt 0.274802 0.757436
vt 0.184710 0.757436
vt 0.121005 0.693731
vt 0.121005 0.603639
vt 0.717671 0.522170
vt 0.760043 0.526236
vt 0.736439 0.710240
vt 0.705845 0.707304
vt 0.328492 0.601758
vt 0.096834 0.604671
vt 0.095653 0.521917
vt 0.324305 0.510268
vt 0.096794 0.659956
vt 0.328464 0.662674
vt 0.324376 0.753793
vt 0.095653 0.743069
vt 0.295269 0.791980
vt 0.260318 0.793025
vt 0.260702 0.774789
vt 0.295831 0.773813
vt 0.802070 0.532996
vt 0.843580 0.542421
vt 0.796756 0.721927
vt 0.766784 0.715121
vt 0.548181 0.532996
vt 0.590208 0.526237
vt 0.613812 0.710240
vt 0.583467 0.715121
vt 0.675125 0.520812
vt 0.675125 0.706324
vt 0.506671 0.542421
vt 0.553495 0.721926
vt 0.632580 0.522170
vt 0.644406 0.707304
vt 0.226002 0.775519
vt 0.191367 0.775490
vt 0.190271 0.751637
vt 0.224208 0.751707
vt 0.225348 0.793796
vt 0.190296 0.793917
vt 0.154826 0.793356
vt 0.156328 0.774374
vt 0.117944 0.792567
vt 0.077106 0.795043
vt 0.068462 0.770071
vt 0.119132 0.771761
vt 0.330221 0.792131
vt 0.332565 0.774125
vt 0.366492 0.800250
vt 0.378592 0.781497
vt 0.330739 0.747317
vt 0.293336 0.749276
vt 0.292919 0.725082
vt 0.328434 0.720967
vt 0.120987 0.745427
vt 0.156241 0.750064
vt 0.382260 0.741307
vt 0.258410 0.750816
vt 0.077493 0.731624
vt 0.328741 0.632227
vt 0.096904 0.632303
vt 0.191959 0.729200
vt 0.225128 0.728876
vt 0.126974 0.724387
vt 0.159196 0.728156
vt 0.366487 0.711710
vt 0.258706 0.727515
vt 0.095714 0.711710
vt 0.454807 0.001822
vt 0.455831 0.443210
vt 0.364715 0.443316
vt 0.364715 0.296186
vt 0.364715 0.149056
vt 0.364715 0.001926
vt 0.544898 0.001508
vt 0.546948 0.442893
vt 0.634989 0.000985
vt 0.638063 0.442364
vt 0.725078 0.000253
vt 0.729176 0.441624
vt 0.183165 0.295764
vt 0.182482 0.442893
vt 0.091367 0.442364
vt 0.092392 0.295238
vt 0.273940 0.296081
vt 0.273598 0.443210
vt 0.236162 0.845663
vt 0.236156 0.443822
vt 0.295132 0.443847
vt 0.294792 0.845687
vt 0.172516 0.659228
vt 0.170725 0.689921
vt 0.106504 0.700140
vt 0.109919 0.641610
vt 0.241536 0.606952
vt 0.211506 0.613544
vt 0.184270 0.554493
vt 0.241536 0.541923
vt 0.186997 0.632107
vt 0.137533 0.589891
vt 0.312347 0.689921
vt 0.310556 0.659228
vt 0.373153 0.641610
vt 0.376568 0.700140
vt 0.271566 0.613544
vt 0.298802 0.554493
vt 0.296075 0.632107
vt 0.345539 0.589891
vt 0.060274 0.845893
vt 0.059229 0.444054
vt 0.118205 0.443926
vt 0.118904 0.845765
vt 0.412050 0.845888
vt 0.413084 0.444049
vt 0.472060 0.444226
vt 0.470680 0.846064
vt 0.177181 0.443849
vt 0.177533 0.845689
vt 0.353421 0.845762
vt 0.354108 0.443922
vt 0.001645 0.846070
vt 0.000253 0.444233
vt 0.291979 0.672647
vt 0.250277 0.714349
vt 0.191301 0.714349
vt 0.149599 0.672647
vt 0.149599 0.613671
vt 0.191301 0.571969
vt 0.250277 0.571969
vt 0.291979 0.613671
vt 0.274281 0.148951
vt 0.274623 0.001822
vt 0.183848 0.148636
vt 0.184532 0.001508
vt 0.093416 0.148111
vt 0.094441 0.000985
vt 0.000253 0.441623
vt 0.004352 0.000253
vn -0.1999 0.7471 0.6340
vn -0.5896 0.7471 0.3069
vn -0.6340 0.7471 -0.1999
vn -0.3069 0.7471 -0.5896
vn 0.1999 0.7471 -0.6340
vn 0.5896 0.7471 -0.3069
vn 0.4617 -0.0148 0.8869
vn 0.6340 0.7471 0.1999
vn 0.3007 -0.0148 -0.9536
vn 0.0000 -1.0000 0.0000
vn 0.2998 0.0770 -0.9509
vn -0.3007 -0.0148 0.9536
vn 0.9536 -0.0148 0.3007
vn -0.4617 -0.0148 -0.8869
vn 0.8869 -0.0148 -0.4617
vn 0.2115 -0.8889 0.4063
vn -0.9509 0.0770 -0.2998
vn -0.2998 0.0770 0.9509
vn 0.8844 0.0770 -0.4604
vn -0.4604 0.0770 -0.8844
vn -0.8844 0.0770 0.4604
vn 0.4604 0.0770 0.8844
vn 0.9509 0.0770 0.2998
vn 0.8870 0.0000 -0.4617
vn 0.4368 -0.8889 0.1377
vn 0.1377 -0.8889 -0.4368
vn -0.4368 -0.8889 -0.1377
vn -0.1377 -0.8889 0.4368
vn 0.4063 -0.8889 -0.2115
vn -0.2115 -0.8889 -0.4063
vn -0.4063 -0.8889 0.2115
vn -0.1329 0.8971 0.4214
vn -0.4617 0.0000 -0.8870
vn -0.8870 0.0000 0.4617
vn 0.4617 0.0000 0.8870
vn 0.9537 0.0000 0.3007
vn 0.3007 0.0000 -0.9537
vn -0.9537 0.0000 -0.3007
vn -0.3007 0.0000 0.9537
vn -0.8869 -0.0148 0.4617
vn 0.3919 0.8971 -0.2040
vn -0.2040 0.8971 -0.3919
vn -0.3919 0.8971 0.2040
vn 0.2040 0.8971 0.3919
vn 0.4214 0.8971 0.1329
vn 0.1329 0.8971 -0.4214
vn -0.4214 0.8971 -0.1329
vn 0.8870 -0.0028 -0.4618
vn 0.3007 -0.0028 -0.9537
vn -0.4617 -0.0028 -0.8870
vn -0.9537 -0.0028 -0.3007
vn -0.3007 -0.0054 0.9537
vn 0.4617 -0.0054 0.8870
vn -0.9537 -0.0010 -0.3007
vn 0.3069 0.7471 0.5896
vn 0.8088 -0.5299 0.2550
vn -0.7522 -0.5299 0.3916
vn 0.3916 -0.5299 0.7522
vn 0.7522 -0.5299 -0.3916
vn -0.2550 -0.5299 0.8088
vn -0.8088 -0.5299 -0.2550
vn 0.2550 -0.5299 -0.8088
vn -0.3916 -0.5299 -0.7522
vn 0.4617 -0.0010 0.8870
vn 0.8870 -0.0010 -0.4617
vn -0.3007 -0.0010 0.9537
vn 0.3007 -0.0010 -0.9537
vn -0.4617 -0.0010 -0.8870
vn 0.9537 -0.0010 0.3007
vn -0.8870 -0.0010 0.4617
vn 0.0000 1.0000 0.0000
vn 0.9537 -0.0054 0.3007
vn -0.9536 -0.0148 -0.3007
vn 0.9537 -0.0061 0.3007
vn 0.4617 -0.0061 0.8870
vn -0.3007 -0.0061 0.9537
vn -0.8870 -0.0028 0.4617
usemtl (null)
s off
f 18/9/4 19/10/4 59/11/4 58/12/4
f 19/10/5 20/13/5 60/14/5 59/11/5
f 20/15/6 21/16/6 61/17/6 60/18/6
f 21/16/7 22/19/7 62/20/7 61/17/7
f 22/19/8 23/21/8 63/22/8 62/20/8
f 23/21/9 24/23/9 64/24/9 63/22/9
f 54/25/10 53/26/10 68/27/10 67/28/10
f 24/23/11 17/29/11 57/30/11 64/24/11
f 50/31/12 71/32/12 70/33/12 51/34/12
f 9/35/13 10/36/13 11/37/13 12/38/13 13/39/13 14/40/13 15/41/13 16/42/13
f 23/43/14 22/44/14 30/45/14 31/46/14
f 54/25/15 67/28/15 66/47/15 55/48/15
f 52/49/16 69/50/16 68/27/16 53/26/16
f 49/51/17 72/52/17 71/32/17 50/31/17
f 51/34/18 70/33/18 69/53/18 52/54/18
f 26/55/19 25/56/19 33/57/19 34/58/19
f 21/59/20 20/60/20 28/61/20 29/62/20
f 19/63/21 18/64/21 26/65/21 27/66/21
f 24/67/22 23/43/22 31/46/22 32/68/22
f 22/44/23 21/59/23 29/62/23 30/45/23
f 20/69/24 19/63/24 27/66/24 28/70/24
f 18/64/25 17/71/25 25/72/25 26/65/25
f 17/71/26 24/67/26 32/68/26 25/72/26
f 40/73/27 39/74/27 47/75/27 48/76/27
f 25/56/28 32/77/28 40/73/28 33/57/28
f 31/78/29 30/79/29 38/80/29 39/74/29
f 29/81/30 28/82/30 36/83/30 37/84/30
f 27/85/31 26/55/31 34/58/31 35/86/31
f 32/77/32 31/78/32 39/74/32 40/73/32
f 30/79/33 29/81/33 37/84/33 38/80/33
f 28/87/34 27/85/34 35/86/34 36/88/34
f 43/89/35 42/90/35 50/91/35 51/92/35
f 38/80/36 37/84/36 45/93/36 46/94/36
f 36/88/37 35/86/37 43/89/37 44/95/37
f 34/58/38 33/57/38 41/96/38 42/90/38
f 33/57/39 40/73/39 48/76/39 41/96/39
f 39/74/40 38/80/40 46/94/40 47/75/40
f 37/84/41 36/83/41 44/97/41 45/93/41
f 35/86/42 34/58/42 42/90/42 43/89/42
f 55/48/43 66/47/43 65/98/43 56/99/43
f 48/76/44 47/75/44 55/100/44 56/101/44
f 46/94/45 45/93/45 53/102/45 54/103/45
f 44/95/46 43/89/46 51/92/46 52/104/46
f 42/90/47 41/96/47 49/105/47 50/91/47
f 41/96/48 48/76/48 56/101/48 49/105/48
f 47/75/49 46/94/49 54/103/49 55/100/49
f 45/93/50 44/97/50 52/106/50 53/102/50
f 15/107/51 63/108/51 64/109/51 95/110/51 96/111/51 16/112/51
f 14/113/52 62/114/52 63/108/52 15/107/52
f 13/115/53 61/116/53 62/114/53 14/113/53
f 12/117/54 60/118/54 61/116/54 13/115/54
f 91/119/55 58/120/55 59/121/55 93/122/55
f 90/123/56 57/124/56 58/120/56 91/119/56
f 73/125/57 81/126/57 88/127/57 80/128/57
f 57/30/58 17/29/58 18/9/58 58/12/58
f 68/129/59 69/130/59 77/131/59 76/132/59
f 65/133/60 66/134/60 74/135/60 73/136/60
f 67/137/61 68/129/61 76/132/61 75/138/61
f 69/139/62 70/140/62 78/141/62 77/142/62
f 66/134/63 67/137/63 75/138/63 74/135/63
f 72/143/64 65/133/64 73/136/64 80/144/64
f 70/140/65 71/145/65 79/146/65 78/141/65
f 71/145/66 72/143/66 80/144/66 79/146/66
f 76/147/67 84/148/67 83/149/67 75/150/67
f 78/151/68 86/152/68 85/153/68 77/154/68
f 75/150/69 83/149/69 82/155/69 74/156/69
f 79/157/70 87/158/70 86/152/70 78/151/70
f 80/128/71 88/127/71 87/158/71 79/157/71
f 77/159/72 85/160/72 84/148/72 76/147/72
f 74/156/73 82/155/73 81/126/73 73/125/73
f 87/161/74 88/162/74 81/163/74 82/164/74 83/165/74 84/166/74 85/167/74 86/168/74
f 95/110/75 64/109/75 57/124/75 90/123/75
f 56/99/76 65/98/76 72/52/76 49/51/76
f 16/112/77 96/111/77 89/169/77 9/170/77
f 9/170/78 89/169/78 92/171/78 10/172/78
f 10/172/79 92/171/79 94/173/79 11/174/79
f 11/174/80 94/173/80 93/122/80 59/121/80 60/175/80 12/176/80
